<?xml version="1.0" encoding="UTF-8" standalone="no"?>
<svg xmlns:dc="http://purl.org/dc/elements/1.1/" xmlns:cc="http://creativecommons.org/ns#" xmlns:rdf="http://www.w3.org/1999/02/22-rdf-syntax-ns#" xmlns:svg="http://www.w3.org/2000/svg" xmlns="http://www.w3.org/2000/svg" xmlns:sodipodi="http://sodipodi.sourceforge.net/DTD/sodipodi-0.dtd" xmlns:inkscape="http://www.inkscape.org/namespaces/inkscape" version="1.1" id="svg2" xml:space="preserve" viewBox="0 0 487.47733 214.49199" sodipodi:docname="mir.svg" inkscape:version="0.92.2 (5c3e80d, 2017-08-06)">
  <defs id="defs6">
    <clipPath clipPathUnits="userSpaceOnUse" id="clipPath18">
      <path d="M 0,300 H 600 V 0 H 0 Z" id="path16" inkscape:connector-curvature="0" />
    </clipPath>
    <clipPath clipPathUnits="userSpaceOnUse" id="clipPath42">
      <path d="m 358.393,189.827 c 3.442,-18.719 19.821,-32.905 39.532,-32.905 v 0 h 44.009 c 0.356,1.774 0.548,3.607 0.548,5.486 v 0 c 0,15.141 -12.277,27.419 -27.418,27.419 v 0 z" id="path40" inkscape:connector-curvature="0" />
    </clipPath>
    <linearGradient x1="0" y1="0" x2="1" y2="0" gradientUnits="userSpaceOnUse" gradientTransform="matrix(84.090439,0,0,-84.090439,358.39218,173.37456)" spreadMethod="pad"
      id="linearGradient56">
      <stop style="stop-opacity:1;stop-color:#00a7e3" offset="0" id="stop48" />
      <stop style="stop-opacity:1;stop-color:#00a7e3" offset="0.00985222" id="stop50"/>
      <stop style="stop-opacity:1;stop-color:#00a7e3" offset="0.26316777" id="stop52"/>
      <stop style="stop-opacity:1;stop-color:#007ec4" offset="1" id="stop54"/>
    </linearGradient>
  </defs>
  <sodipodi:namedview pagecolor="#ffffff" bordercolor="#666666" borderopacity="1" objecttolerance="10" gridtolerance="10" guidetolerance="10" inkscape:pageopacity="0" inkscape:pageshadow="2" inkscape:window-width="1853" inkscape:window-height="1025" id="namedview4" showgrid="false" inkscape:zoom="0.59" inkscape:cx="243.87747" inkscape:cy="107.7644" inkscape:window-x="67" inkscape:window-y="27" inkscape:window-maximized="1" inkscape:current-layer="g10"/>
  <g id="g10" inkscape:groupmode="layer" inkscape:label="logo-mir" transform="matrix(1.3333333,0,0,-1.3333333,-156.12253,306.72759)">
    <g id="g12">
      <g id="g14" clip-path="url(#clipPath18)">
        <g id="g20" transform="translate(462.5919,69.1767)">
          <path d="M 0,0 H -325.392 C -336.496,0 -345.5,9.003 -345.5,20.108 v 120.653 c 0,11.104 9.004,20.108 20.108,20.108 H 0 c 11.104,0 20.108,-9.004 20.108,-20.108 V 20.108 C 20.108,9.003 11.104,0 0,0" style="fill:#ffffff;fill-opacity:1;fill-rule:nonzero;stroke:none" id="path22" inkscape:connector-curvature="0" />
        </g>
        <g id="g24" transform="translate(316.0838,181.3309)">
          <path d="m 0,0 -18.013,-39.031 h -1.832 V 8.496 h -25.594 v -80.432 h 21.725 c 5.701,0 10.882,3.315 13.275,8.496 L 7.58,-24.409 H 9.406 V -71.936 H 34.999 V 8.496 H 13.28 C 7.574,8.496 2.392,5.181 0,0" style="fill:#20aa4d;fill-opacity:1;fill-rule:nonzero;stroke:none" id="path26" inkscape:connector-curvature="0" />
        </g>
        <g id="g28" transform="translate(220.0691,179.2557)">
          <path d="m 0,0 -10.661,-36.96 h -1.826 L -23.148,0 c -1.809,6.261 -7.539,10.573 -14.051,10.573 h -25.558 v -80.437 h 25.587 v 47.533 h 1.832 l 14.623,-47.533 h 18.281 l 14.624,47.533 h 1.826 V -69.864 H 39.609 V 10.573 H 14.051 C 7.539,10.573 1.809,6.261 0,0"  style="fill:#20aa4d;fill-opacity:1;fill-rule:nonzero;stroke:none" id="path30" inkscape:connector-curvature="0" />
        </g>
        <g id="g32" transform="translate(362.0502,153.2657)">
          <path d="m 0,0 v -43.875 h 25.54 v 25.593 h 27.472 c 11.933,0 22.057,7.638 25.827,18.282 z"  style="fill:#20aa4d;fill-opacity:1;fill-rule:nonzero;stroke:none" id="path34" inkscape:connector-curvature="0" />
        </g>
      </g>
    </g>
    <g id="g36">
      <g id="g38" clip-path="url(#clipPath42)">
        <g id="g44">
          <g id="g46">
            <path d="m 358.393,189.827 c 3.442,-18.719 19.821,-32.905 39.532,-32.905 v 0 h 44.009 c 0.356,1.774 0.548,3.607 0.548,5.486 v 0 c 0,15.141 -12.277,27.419 -27.418,27.419 v 0 z"  style="fill:url(#linearGradient56);stroke:none" id="path58" inkscape:connector-curvature="0" />
          </g>
        </g>
      </g>
    </g>
  </g>
</svg>
